<svg width="35" height="35" viewBox="0 0 35 35" fill="none" xmlns="http://www.w3.org/2000/svg">
<path fill-rule="evenodd" clip-rule="evenodd" d="M25.47 0.434313C27.9274 0.280721 30.3508 1.13401 32.1768 2.80644C33.8493 4.63247 34.7026 7.0558 34.566 9.53032V25.4697C34.7196 27.9442 33.8493 30.3675 32.1939 32.1935C30.3678 33.866 27.9274 34.7193 25.47 34.5657H9.53048C7.05594 34.7193 4.63259 33.866 2.80655 32.1935C1.1341 30.3675 0.280812 27.9442 0.434404 25.4697V9.53032C0.280812 7.0558 1.1341 4.63247 2.80655 2.80644C4.63259 1.13401 7.05594 0.280721 9.53048 0.434313H25.47ZM15.7595 25.7768L27.2447 14.2575C28.2858 13.1994 28.2858 11.4929 27.2447 10.4519L25.0262 8.23332C23.9681 7.17525 22.2615 7.17525 21.2034 8.23332L20.06 9.39379C19.8894 9.56444 19.8894 9.85456 20.06 10.0252C20.06 10.0252 22.7735 12.7216 22.8247 12.7899C23.0124 12.9946 23.1319 13.2677 23.1319 13.5749C23.1319 14.1892 22.637 14.7012 22.0055 14.7012C21.7154 14.7012 21.4424 14.5818 21.2546 14.394L18.4047 11.5611C18.2681 11.4246 18.0292 11.4246 17.8927 11.5611L9.75229 19.7015C9.18912 20.2646 8.86487 21.0155 8.8478 21.8176L8.7454 25.8622C8.7454 26.084 8.81367 26.2888 8.96726 26.4424C9.12085 26.596 9.32564 26.6813 9.5475 26.6813H13.558C14.3771 26.6813 15.1622 26.3571 15.7595 25.7768Z" fill="white"/>
</svg>
