<svg width="687" height="687" viewBox="0 0 687 687" fill="none" xmlns="http://www.w3.org/2000/svg">
<rect width="687" height="687" rx="119" fill="#6C5DD3"/>
<path d="M163 559V480.5V179C163 151.386 185.386 129 213 129H303.454C353.763 129 391.988 138.22 418.127 156.661C444.445 175.102 457.604 201.868 457.604 236.959C457.604 257.19 452.95 274.467 443.64 288.79C434.33 303.113 420.633 313.676 402.551 320.479C422.961 325.851 438.627 335.877 449.548 350.558C460.469 365.239 465.93 383.142 465.93 404.269C465.93 442.582 453.755 471.407 429.406 490.743C405.236 509.9 369.34 519.658 321.716 520.016H194.5L163 559ZM277.263 353.78C266.217 353.78 257.263 362.735 257.263 373.78V427.506C257.263 438.552 266.217 447.506 277.263 447.506H319.03C336.039 447.506 349.108 443.657 358.239 435.958C367.37 428.08 371.936 417.07 371.936 402.926C371.936 370.341 355.733 353.959 323.327 353.78H277.263ZM257.263 272.013C257.263 283.058 266.217 292.013 277.263 292.013H306.408C326.997 291.834 341.678 288.074 350.451 280.733C359.224 273.393 363.61 262.561 363.61 248.238C363.61 231.767 358.866 219.951 349.377 212.789C339.888 205.449 324.58 201.778 303.454 201.778H277.263C266.217 201.778 257.263 210.733 257.263 221.778V272.013Z" fill="white"/>
<circle cx="526" cy="479.016" r="41" fill="white"/>
</svg>
