<svg width="23" height="23" viewBox="0 0 23 23" fill="none" xmlns="http://www.w3.org/2000/svg">
<g id="Iconly/Bold/Search">
<g id="Search">
<path id="Search_2" fill-rule="evenodd" clip-rule="evenodd" d="M1.91675 10.2253C1.91675 5.63658 5.59707 1.91666 10.137 1.91666C12.3171 1.91666 14.408 2.79203 15.9496 4.35021C17.4912 5.90839 18.3572 8.02174 18.3572 10.2253C18.3572 14.8141 14.6769 18.534 10.137 18.534C5.59707 18.534 1.91675 14.8141 1.91675 10.2253ZM18.2212 16.9187L20.6694 18.8949H20.7119C21.2072 19.3955 21.2072 20.2072 20.7119 20.7079C20.2166 21.2085 19.4136 21.2085 18.9182 20.7079L16.8866 18.3794C16.6945 18.1859 16.5865 17.9231 16.5865 17.649C16.5865 17.3749 16.6945 17.1121 16.8866 16.9187C17.257 16.5508 17.8508 16.5508 18.2212 16.9187Z" fill="white"/>
</g>
</g>
</svg>
